<svg width="30" height="30" viewBox="0 0 30 30" fill="none" xmlns="http://www.w3.org/2000/svg">
<path d="M8.77031 17.0508C8.65547 16.7625 8.53828 16.4765 8.42109 16.1906C8.13281 15.3867 8.24765 14.6414 8.8289 14.0109C9.29297 13.4953 9.87187 13.0922 10.6266 13.0359C11.0906 12.9797 11.4961 13.0922 11.843 13.3219C11.9016 13.3805 11.9602 13.3805 12.0773 13.4367C12.0187 13.2656 11.9602 13.1508 11.9016 12.9797C11.3227 11.2008 10.6852 9.42186 10.1039 7.6453C9.87187 6.89999 9.69843 6.15467 9.525 5.40936C9.525 4.7203 9.58125 4.08983 9.81328 3.51561C10.2773 2.54061 11.1469 2.31327 11.843 2.42811C12.307 2.54061 12.5977 2.82889 12.8297 3.17342C13.3523 3.86014 13.7578 4.60545 14.1633 5.40936C14.9766 7.01483 15.5555 8.73514 16.1367 10.4555C16.2516 10.8 16.3687 11.0859 16.4836 11.4305C16.4836 11.4867 16.5422 11.4867 16.5984 11.5453C16.7156 11.2008 16.8891 10.8562 17.0062 10.4555C17.4703 9.02108 17.9906 7.58905 18.6867 6.26952C19.0945 5.40936 19.5586 4.49061 20.1961 3.7453C20.2547 3.5742 20.4281 3.45936 20.543 3.34452C21.3562 2.5992 22.4578 2.82889 22.9805 3.51561C23.4422 4.08983 23.5594 4.7203 23.5008 5.40936C23.3859 6.38436 23.0953 7.35936 22.8047 8.33436C22.2844 9.88124 21.7031 11.4305 21.1805 12.9797C21.1805 13.0359 21.1242 13.0922 21.1242 13.1508C21.2391 13.2094 21.3562 13.2094 21.4711 13.2656C22.1672 13.4953 22.8633 13.7812 23.2687 14.4117C23.5594 14.8711 23.7328 15.3867 23.85 15.9047C24.0234 16.7625 24.0234 17.6226 23.9648 18.4851C23.9086 19.6312 23.6766 20.7773 23.2687 21.8109C22.3992 23.932 21.007 25.5937 18.9187 26.6273C17.8758 27.143 16.7156 27.4875 15.5555 27.5437C13.9312 27.7172 12.3656 27.4875 10.8586 26.857C8.88515 26.0531 6.91406 24.0469 6.33515 22.2117C6.04453 21.293 5.92968 20.4328 6.04453 19.4578C6.21797 18.2555 6.97265 17.4515 8.13281 17.107C8.36484 17.107 8.59687 17.107 8.77031 17.0508ZM8.47968 20.2617C8.53828 20.3765 8.65547 20.4328 8.71172 20.5476C9.00234 20.8922 9.23437 21.2367 9.525 21.5812C9.87187 21.982 10.2211 22.3828 10.6852 22.5562C11.0906 22.7273 11.4375 22.7273 11.843 22.5562C12.1922 22.3828 12.2508 22.1555 12.1922 21.8109C12.1336 21.6961 12.0773 21.5812 12.0187 21.4664C11.6109 20.6625 11.0906 19.9172 10.4531 19.2867C10.1039 18.9422 9.81328 18.5976 9.40781 18.3117C9.06093 18.0258 8.71172 18.0258 8.36484 18.2555C7.84218 18.5976 7.49531 19.057 7.31953 19.6875C7.14609 20.318 7.26328 20.9484 7.49531 21.5226C8.07422 23.0719 9.06093 24.3328 10.4531 25.193C12.5391 26.5125 14.8031 26.7984 17.1211 26.0531C19.7906 25.193 21.4711 23.3015 22.3992 20.7211C22.8047 19.6312 22.8633 18.4265 22.8633 17.2805C22.8633 16.7062 22.8047 16.132 22.6312 15.6164C22.4578 15.157 22.1672 14.7562 21.7031 14.5265C21.4125 14.4117 21.1805 14.2969 20.8922 14.182C19.0945 13.5515 17.2383 13.3805 15.382 13.2094C14.9766 13.2094 14.6273 13.2094 14.2219 13.3219C13.9312 13.4367 13.6992 13.6101 13.6992 13.9547C13.643 14.6414 13.8727 15.2156 14.4539 15.6164C14.8594 15.9047 15.382 16.0758 15.9047 16.1906C17.0648 16.4203 18.2812 16.4203 19.5 16.4203C19.7906 16.4203 20.0203 16.4203 20.3109 16.4765C20.6016 16.5351 20.6602 16.7625 20.7164 17.0508C20.775 17.2805 20.6016 17.3953 20.4281 17.4515C20.0789 17.6226 19.7906 17.7375 19.4414 17.8523C18.0492 18.3703 17.0062 19.2867 16.2516 20.5476C15.7289 21.4664 15.5555 22.4414 15.9609 23.4726C16.0781 23.7023 16.1367 23.932 16.193 24.218C16.2516 24.4476 16.3102 24.7359 16.2516 25.0219C15.6727 24.907 15.3234 24.6187 15.0328 24.1617C14.8031 23.7023 14.6859 23.1867 14.6273 22.6711C14.5687 22.3828 14.5687 22.0969 14.5687 21.8109C14.2219 22.0383 13.8164 21.982 13.4109 21.9234C13.4109 22.0383 13.4672 22.0969 13.4672 22.1555C13.643 22.8422 13.3523 23.4726 12.7711 23.8734C12.307 24.218 11.7281 24.218 11.2055 24.1031C10.2773 23.8734 9.58125 23.3015 9.00234 22.5562C8.71172 22.1555 8.42109 21.6961 8.36484 21.2367C8.1914 20.7773 8.1914 20.5476 8.47968 20.2617ZM15.4406 12.2906V12.2344C14.918 10.6851 14.3953 9.07967 13.8164 7.53045C13.4672 6.55545 13.0617 5.5242 12.6562 4.5492C12.5391 4.26327 12.3656 3.97498 12.0773 3.7453C11.5547 3.40311 10.9734 3.5742 10.8 4.14608C10.7414 4.37811 10.6852 4.60545 10.7414 4.83514C10.7414 5.5242 10.9172 6.15467 11.1469 6.78514C11.843 8.67889 12.4828 10.5703 13.1789 12.4617C13.8727 12.0047 14.6859 12.2906 15.4406 12.2906ZM19.8469 12.9211C19.8469 12.8648 19.9055 12.8648 19.9055 12.8062C20.7164 10.6289 21.4711 8.4492 22.1672 6.21092C22.2844 5.75389 22.3992 5.35311 22.3406 4.83514C22.2844 4.37811 21.9937 4.14608 21.6445 4.08983C21.3562 4.08983 21.0656 4.20467 20.8922 4.43436C20.543 4.83514 20.3109 5.29452 20.1375 5.75389C19.2094 7.93123 18.5133 10.1695 17.7609 12.4055C17.7609 12.4055 17.7609 12.4617 17.7609 12.5203C18.3984 12.6351 19.0945 12.75 19.8469 12.9211ZM14.5687 19.8023C14.5687 19.6875 14.5687 19.5726 14.5125 19.4578C14.3391 19.057 14.2219 18.6562 14.0484 18.1969C13.5844 17.107 13.0031 16.0172 12.2508 15.0422C12.0187 14.7562 11.7281 14.4703 11.3812 14.2969C10.6266 13.9547 9.525 14.6414 9.58125 15.5015V15.5601C9.69843 15.8461 9.75703 16.1906 9.87187 16.4765C10.5094 17.7375 11.3812 18.8273 12.3656 19.8609C12.6562 20.1469 13.0031 20.4328 13.4109 20.6062C13.9898 20.8359 14.5687 20.4328 14.5687 19.8023ZM15.6727 19.2305C16.1367 18.5414 16.7742 18.082 17.4703 17.5664C16.5422 17.5101 15.6727 17.3953 14.8594 17.107C15.0914 17.7961 15.382 18.4851 15.6727 19.2305Z" fill="#505F79"/>
</svg>
